# xmcd
#
# Track frame offsets:
#	150
#	12147
#	25585
#	38842
#	65777
#	80942
#	92280
#	112020
#	125737
#	144092
#	156675
#	170507
#	191347
#	205800
#	217342
#	235705
#
# Disc length: 3436
#
# Revision: 1
# Processed by: cddbd v1.5.1PL0 Copyright (c) Steve Scherf et al.
# Submitted via: CDex 1.50
# Normalized: r0:DSETVAR1
#
DISCID=e10d6a10
DTITLE=Various Artist - Swing Out Sisters - Ladies of Jazz
DYEAR=1998
DGENRE=Jazz
TTITLE0=Ella Fitzgerald - A-Tisket, A-Tasket
TTITLE1=Billie Holiday - Body And Soul
TTITLE2=Mildred Bailey - I Let A Song Go Out Of My Heart
TTITLE3=Sarah Vaughan - How Long Has This Been Going On
TTITLE4=Peggy Lee - Where Or When
TTITLE5=Dinah Washington - Come Rain Or Come Shine
TTITLE6=Nina Simone - My Baby Just Cares For Me
TTITLE7=Carmen McRae - Do Nothin' Till You Hear From Me
TTITLE8=Ella Fitzgerald - Mr. Paganini
TTITLE9=Billie Holiday - I Can't Get Started
TTITLE10=Helen Merrill - Falling In Love With Love
TTITLE11=Sarah Vaughan - Easy Living
TTITLE12=Peggy Lee - On The Sunny Side Of The Street
TTITLE13=Dinah Washington - There Is No Greater Love
TTITLE14=Carmen McRae - Take 5
TTITLE15=Ella Fitzgerald - Let's Do It (Let's Fall In Love)
EXTD=YEAR: 1998
EXTT0=
EXTT1=
EXTT2=
EXTT3=
EXTT4=
EXTT5=
EXTT6=
EXTT7=
EXTT8=
EXTT9=
EXTT10=
EXTT11=
EXTT12=
EXTT13=
EXTT14=
EXTT15=
PLAYORDER=
